<?xml version="1.0" encoding="iso-8859-1"?>
<!-- Generator: Adobe Illustrator 19.0.0, SVG Export Plug-In . SVG Version: 6.00 Build 0)  -->
<svg version="1.1" id="Layer_1" xmlns="http://www.w3.org/2000/svg" xmlns:xlink="http://www.w3.org/1999/xlink" x="0px" y="0px"
	 viewBox="0 0 512 512" style="enable-background:new 0 0 512 512;" xml:space="preserve">
<path style="fill:#E0E0E0;" d="M192.302,448.451c-3.651,0-6.61-2.929-6.61-6.54V89.978c0-36.483,25.241-69.89,67.518-89.366
	c0.884-0.41,1.837-0.612,2.79-0.612c0.953,0,1.905,0.203,2.79,0.611c42.279,19.476,67.519,52.884,67.519,89.366v351.934
	c0,3.611-2.96,6.54-6.611,6.54H192.302z"/>
<path style="fill:#0853A4;" d="M258.79,0.611C257.905,0.203,256.953,0,256.001,0c-0.953,0-1.906,0.203-2.791,0.611
	c-42.278,19.476-67.518,52.884-67.518,89.366v22.837h140.617V89.978C326.31,53.496,301.069,20.088,258.79,0.611z"/>
<path style="fill:#E0E0E0;" d="M403.795,477.672c0,2.849-2.329,5.181-5.175,5.181h-35.633c-2.846,0-5.175-2.331-5.175-5.181V165.569
	c0-2.849,1.407-7.037,3.127-9.309l16.736-22.09c1.721-2.272,4.535-2.272,6.255,0l16.738,22.09c1.719,2.271,3.127,6.46,3.127,9.309
	L403.795,477.672L403.795,477.672z"/>
<path style="fill:#E02424;" d="M383.931,134.17c-1.72-2.272-4.535-2.272-6.255,0l-16.736,22.09c-1.721,2.271-3.127,6.46-3.127,9.309
	v14.205h45.984v-14.205c0-2.849-1.409-7.037-3.127-9.309L383.931,134.17z"/>
<path style="opacity:0.1;enable-background:new    ;" d="M379.841,477.672V165.569c0-2.849,1.407-7.037,3.127-9.309l8.849-11.681
	l-7.887-10.409c-1.72-2.272-4.535-2.272-6.255,0l-16.736,22.09c-1.721,2.271-3.127,6.46-3.127,9.309v312.103
	c0,2.849,2.329,5.181,5.175,5.181h22.03C382.17,482.853,379.841,480.521,379.841,477.672z"/>
<path style="fill:#E0E0E0;" d="M154.19,477.672c0,2.849-2.329,5.181-5.175,5.181h-35.633c-2.846,0-5.175-2.331-5.175-5.181V165.569
	c0-2.849,1.407-7.037,3.128-9.309l16.736-22.09c1.721-2.272,4.536-2.272,6.255,0l16.737,22.09c1.72,2.271,3.127,6.46,3.127,9.309
	L154.19,477.672L154.19,477.672z"/>
<path style="fill:#E02424;" d="M134.325,134.17c-1.72-2.272-4.534-2.272-6.255,0l-16.736,22.09c-1.721,2.271-3.128,6.46-3.128,9.309
	v14.205h45.984v-14.205c0-2.849-1.409-7.037-3.127-9.309L134.325,134.17z"/>
<path style="opacity:0.1;enable-background:new    ;" d="M130.412,477.672V165.569c0-2.849,1.407-7.037,3.127-9.309l8.76-11.564
	l-7.976-10.526c-1.72-2.272-4.534-2.272-6.255,0l-16.736,22.09c-1.721,2.271-3.128,6.46-3.128,9.309v312.103
	c0,2.849,2.329,5.181,5.175,5.181h22.205C132.741,482.853,130.412,480.521,130.412,477.672z"/>
<path style="opacity:0.1;enable-background:new    ;" d="M209.863,441.911V89.978c0-33.718,21.573-64.8,58.216-84.694
	c-2.999-1.632-6.088-3.197-9.289-4.673C257.905,0.203,256.953,0,256.001,0c-0.953,0-1.906,0.203-2.791,0.611
	c-42.278,19.476-67.518,52.884-67.518,89.366v351.934c0,3.611,2.959,6.54,6.61,6.54h24.172
	C212.822,448.451,209.863,445.523,209.863,441.911z"/>
<path style="fill:#414042;" d="M219.519,267.446l-49.99,76.349v101.038c0,2.849-2.329,5.181-5.175,5.181h52.828
	c2.846,0,5.175-2.331,5.175-5.181V268.294C222.356,265.445,221.079,265.063,219.519,267.446z"/>
<path style="fill:#58595B;" d="M86.121,406.701c-2.209,1.796-4.018,5.595-4.018,8.445v29.687c0,2.849,2.329,5.181,5.175,5.181
	h88.124c2.846,0,5.175-2.331,5.175-5.181V335.117c0-2.85-1.808-3.711-4.018-1.915L86.121,406.701z"/>
<path style="opacity:0.1;enable-background:new    ;" d="M115.07,444.834v-29.687c0-2.849,1.809-6.65,4.018-8.445l61.492-49.975
	v-21.611c0-2.85-1.808-3.711-4.018-1.915l-90.441,73.5c-2.209,1.796-4.018,5.595-4.018,8.445v29.687
	c0,2.849,2.329,5.181,5.175,5.181h32.965C117.398,450.015,115.07,447.683,115.07,444.834z"/>
<path style="fill:#414042;" d="M342.471,444.834V343.795l-49.99-76.349c-1.56-2.382-2.837-2.001-2.837,0.847v176.54
	c0,2.849,2.329,5.181,5.175,5.181h52.828C344.8,450.015,342.471,447.683,342.471,444.834z"/>
<path style="fill:#58595B;" d="M425.879,406.701c2.21,1.796,4.018,5.595,4.018,8.445v29.687c0,2.849-2.328,5.181-5.175,5.181
	h-88.126c-2.846,0-5.175-2.331-5.175-5.181V335.117c0-2.85,1.808-3.711,4.018-1.915L425.879,406.701z"/>
<path style="fill:#E02424;" d="M289.159,486.998c0,2.849-2.329,5.181-5.175,5.181h-55.968c-2.846,0-5.175-2.331-5.175-5.181v-17.135
	c0-2.849,2.329-5.181,5.175-5.181h55.968c2.846,0,5.175,2.331,5.175,5.181V486.998z"/>
<path style="fill:#FFFFFF;" d="M294.018,237.329c0-41.781-17.02-75.653-38.018-75.653s-38.018,33.871-38.018,75.653
	c0,0.023,0,0.048,0,0.07l0,0v164.502h76.035V237.4h-0.001C294.017,237.377,294.018,237.353,294.018,237.329z"/>
<path style="fill:#E0E0E0;" d="M289.004,392.156h-66.007c-8.539,0-15.525,6.995-15.525,15.543v25.66h97.058v-25.661
	C304.529,399.151,297.543,392.156,289.004,392.156z"/>
<path style="fill:#0853A4;" d="M207.471,429.56v35.062c0,2.849,2.329,5.181,5.175,5.181h86.708c2.846,0,5.175-2.331,5.175-5.181
	V429.56H207.471z"/>
<path style="opacity:0.1;enable-background:new    ;" d="M228.95,464.621V429.56h-21.48v35.062c0,2.849,2.329,5.181,5.175,5.181
	h21.48C231.279,469.802,228.95,467.471,228.95,464.621z"/>
<path style="opacity:0.1;enable-background:new    ;" d="M244.744,392.156h-21.747c-8.539,0-15.525,6.995-15.525,15.543v21.861
	h21.747v-21.862C229.219,399.151,236.205,392.156,244.744,392.156z"/>
<g>
	<path style="fill:#AAB0B5;" d="M289.898,203.089h-22.659v-0.118c0-2.873-2.351-5.224-5.224-5.224h-12.029
		c-2.873,0-5.224,2.351-5.224,5.224v0.118h-22.659c-1.262,4.939-2.266,10.183-2.962,15.673h73.721
		C292.164,213.272,291.16,208.029,289.898,203.089z"/>
	<path style="fill:#AAB0B5;" d="M256.001,512c-4.328,0-7.837-3.509-7.837-7.837V429.56c0-4.328,3.509-7.837,7.837-7.837
		c4.328,0,7.837,3.509,7.837,7.837v74.604C263.837,508.491,260.328,512,256.001,512z"/>
	<path style="fill:#AAB0B5;" d="M270.944,251.4c-3.818,0-6.999-2.731-7.696-6.347h-14.496c-0.696,3.615-3.877,6.347-7.696,6.347
		c-4.328,0-7.837-3.509-7.837-7.837v-3.627c0-5.821,4.734-10.557,10.553-10.557h24.453c5.819,0,10.553,4.735,10.553,10.557v3.627
		C278.78,247.892,275.272,251.4,270.944,251.4z"/>
	<rect x="357.815" y="310.053" style="fill:#AAB0B5;" width="45.986" height="15.673"/>
	<rect x="357.815" y="243.179" style="fill:#AAB0B5;" width="45.986" height="15.673"/>
	<rect x="357.815" y="207.099" style="fill:#AAB0B5;" width="45.986" height="15.673"/>
	<rect x="108.21" y="310.053" style="fill:#AAB0B5;" width="45.986" height="15.673"/>
	<rect x="108.21" y="243.179" style="fill:#AAB0B5;" width="45.986" height="15.673"/>
	<rect x="108.21" y="207.099" style="fill:#AAB0B5;" width="45.986" height="15.673"/>
</g>
<g>
</g>
<g>
</g>
<g>
</g>
<g>
</g>
<g>
</g>
<g>
</g>
<g>
</g>
<g>
</g>
<g>
</g>
<g>
</g>
<g>
</g>
<g>
</g>
<g>
</g>
<g>
</g>
<g>
</g>
</svg>
